<svg height="480pt" viewBox="0 0 480 480" width="480pt"  xmlns="http://www.w3.org/2000/svg"><path d="m320 248c-39.765625 0-72 32.234375-72 72s32.234375 72 72 72 72-32.234375 72-72c-.046875-39.746094-32.253906-71.953125-72-72zm0 128c-30.929688 0-56-25.070312-56-56s25.070312-56 56-56 56 25.070312 56 56c-.035156 30.914062-25.085938 55.964844-56 56zm0 0"/><path d="m480 200v-96c0-13.253906-10.746094-24-24-24h-176v-32h24c4.417969 0 8-3.582031 8-8v-32c0-4.417969-3.582031-8-8-8h-128c-4.417969 0-8 3.582031-8 8v32c0 4.417969 3.582031 8 8 8h24v32h-176c-13.253906 0-24 10.746094-24 24v96c0 13.253906 10.746094 24 24 24v232c0 13.253906 10.746094 24 24 24h384c13.253906 0 24-10.746094 24-24v-45.726562l5.425781-5.425782c3.121094-3.125 3.121094-8.1875 0-11.3125l-25.546875-25.535156h36.121094c4.417969 0 8-3.582031 8-8v-80c0-4.417969-3.582031-8-8-8h-36.121094l25.546875-25.535156c3.121094-3.125 3.121094-8.1875 0-11.3125l-11.152343-11.152344h5.726562c13.253906 0 24-10.746094 24-24zm-296-184h112v16h-112zm32 32h48v32h-48zm-176 408v-232h32v24c0 4.417969 3.582031 8 8 8h32c4.417969 0 8-3.582031 8-8v-24h69.726562l-11.152343 11.152344c-3.121094 3.125-3.121094 8.1875 0 11.3125l25.546875 25.535156h-36.121094c-4.417969 0-8 3.582031-8 8v80c0 4.417969 3.582031 8 8 8h36.121094l-25.546875 25.535156c-3.121094 3.125-3.121094 8.1875 0 11.3125l56.578125 56.578125c3.171875 3 8.136718 3 11.3125 0l25.535156-25.546875v28.121094h-224c-4.417969 0-8-3.582031-8-8zm64-216h-16v-48h16zm336 216c0 4.417969-3.582031 8-8 8h-64v-28.121094l25.535156 25.546875c3.125 3.121094 8.1875 3.121094 11.3125 0l35.152344-35.152343zm-23.449219-187.304688c-2.347656 2.347657-3.003906 5.898438-1.648437 8.929688.800781 1.71875 1.464844 3.480469 2.144531 5.238281 1.1875 3.09375 4.152344 5.132813 7.464844 5.136719h39.488281v64h-39.488281c-3.3125.003906-6.277344 2.042969-7.464844 5.136719-.679687 1.757812-1.375 3.519531-2.144531 5.238281-1.355469 3.03125-.699219 6.582031 1.648437 8.929688l27.90625 27.894531-45.257812 45.257812-27.886719-27.90625c-2.347656-2.347656-5.898438-3.003906-8.929688-1.648437-1.71875.800781-3.480468 1.464844-5.238281 2.144531-3.09375 1.1875-5.132812 4.152344-5.136719 7.464844v39.488281h-64.007812v-39.488281c-.003906-3.3125-2.042969-6.277344-5.136719-7.464844-1.757812-.679687-3.519531-1.375-5.238281-2.144531-3.03125-1.355469-6.582031-.699219-8.929688 1.648437l-27.894531 27.90625-45.257812-45.257812 27.90625-27.886719c2.347656-2.347656 3.003906-5.898438 1.648437-8.929688-.800781-1.71875-1.464844-3.480468-2.144531-5.238281-1.183594-3.09375-4.152344-5.140625-7.464844-5.144531h-39.488281v-64h39.488281c3.3125-.003906 6.277344-2.042969 7.464844-5.136719.679687-1.757812 1.375-3.519531 2.144531-5.238281 1.355469-3.03125.699219-6.582031-1.648437-8.929688l-27.90625-27.894531 45.257812-45.257812 27.886719 27.90625c2.347656 2.347656 5.898438 3.003906 8.929688 1.648437 1.71875-.800781 3.480468-1.464844 5.238281-2.144531 3.09375-1.183594 5.140625-4.152344 5.144531-7.464844v-39.488281h64v39.488281c.003906 3.3125 2.042969 6.277344 5.136719 7.464844 1.757812.679687 3.519531 1.375 5.238281 2.144531 3.03125 1.355469 6.582031.699219 8.929688-1.648437l27.894531-27.90625 45.257812 45.257812zm-11.703125-90.121093c-3.171875-3-8.136718-3-11.3125 0l-25.535156 25.546875v-36.121094c0-4.417969-3.582031-8-8-8h-80c-4.417969 0-8 3.582031-8 8v36.121094l-25.535156-25.546875c-3.125-3.121094-8.1875-3.121094-11.3125 0l-29.425782 29.425781h-85.726562v-24c0-4.417969-3.582031-8-8-8h-32c-4.417969 0-8 3.582031-8 8v24h-48c-4.417969 0-8-3.582031-8-8v-96c0-4.417969 3.582031-8 8-8h432c4.417969 0 8 3.582031 8 8v96c0 4.417969-3.582031 8-8 8h-8c-3.644531.03125-6.796875 2.558594-7.617188 6.113281zm0 0"/></svg>